<mxfile host="app.diagrams.net" modified="2020-11-10T02:36:01.679Z" agent="5.0 (Windows NT 10.0; Win64; x64) AppleWebKit/537.36 (KHTML, like Gecko) Chrome/86.0.4240.111 Safari/537.36 OPR/72.0.3815.200" etag="-dudG8q74o_K3V1aWmZa" version="13.9.2" type="github">
  <diagram id="HHxKFfwdLsCeLlObY0tx" name="Page-1">
    <mxGraphModel dx="1344" dy="687" grid="1" gridSize="10" guides="1" tooltips="1" connect="1" arrows="1" fold="1" page="1" pageScale="1" pageWidth="1654" pageHeight="1169" math="0" shadow="0">
      <root>
        <mxCell id="0" />
        <mxCell id="1" parent="0" />
        <mxCell id="po81cwR4hUowYtx83xnZ-3" value="Mulai" style="rounded=1;whiteSpace=wrap;html=1;fillColor=#FFFFFF;" parent="1" vertex="1">
          <mxGeometry x="130" y="60" width="70" height="30" as="geometry" />
        </mxCell>
        <mxCell id="po81cwR4hUowYtx83xnZ-4" value="" style="endArrow=classic;html=1;exitX=0.5;exitY=1;exitDx=0;exitDy=0;" parent="1" source="po81cwR4hUowYtx83xnZ-3" edge="1">
          <mxGeometry width="50" height="50" relative="1" as="geometry">
            <mxPoint x="450" y="330" as="sourcePoint" />
            <mxPoint x="165" y="160" as="targetPoint" />
          </mxGeometry>
        </mxCell>
        <mxCell id="po81cwR4hUowYtx83xnZ-18" style="edgeStyle=orthogonalEdgeStyle;rounded=0;orthogonalLoop=1;jettySize=auto;html=1;exitX=1;exitY=0.25;exitDx=0;exitDy=0;entryX=0;entryY=0.5;entryDx=0;entryDy=0;" parent="1" source="po81cwR4hUowYtx83xnZ-5" target="po81cwR4hUowYtx83xnZ-19" edge="1">
          <mxGeometry relative="1" as="geometry">
            <mxPoint x="360" y="171" as="targetPoint" />
          </mxGeometry>
        </mxCell>
        <mxCell id="po81cwR4hUowYtx83xnZ-5" value="Menu Utama" style="shape=parallelogram;perimeter=parallelogramPerimeter;whiteSpace=wrap;html=1;fixedSize=1;fillColor=#FFFFFF;" parent="1" vertex="1">
          <mxGeometry x="100" y="160" width="120" height="40" as="geometry" />
        </mxCell>
        <mxCell id="po81cwR4hUowYtx83xnZ-7" value="Home" style="rhombus;whiteSpace=wrap;html=1;fillColor=#FFFFFF;" parent="1" vertex="1">
          <mxGeometry x="99" y="250" width="120" height="50" as="geometry" />
        </mxCell>
        <mxCell id="po81cwR4hUowYtx83xnZ-10" value="" style="endArrow=classic;html=1;entryX=1;entryY=1;entryDx=0;entryDy=0;exitX=1;exitY=0.5;exitDx=0;exitDy=0;" parent="1" source="po81cwR4hUowYtx83xnZ-7" target="po81cwR4hUowYtx83xnZ-5" edge="1">
          <mxGeometry width="50" height="50" relative="1" as="geometry">
            <mxPoint x="160" y="320" as="sourcePoint" />
            <mxPoint x="210" y="270" as="targetPoint" />
            <Array as="points">
              <mxPoint x="290" y="275" />
              <mxPoint x="290" y="194" />
            </Array>
          </mxGeometry>
        </mxCell>
        <mxCell id="po81cwR4hUowYtx83xnZ-11" value="Y" style="edgeLabel;html=1;align=center;verticalAlign=middle;resizable=0;points=[];" parent="po81cwR4hUowYtx83xnZ-10" vertex="1" connectable="0">
          <mxGeometry x="-0.8855" y="1" relative="1" as="geometry">
            <mxPoint as="offset" />
          </mxGeometry>
        </mxCell>
        <mxCell id="po81cwR4hUowYtx83xnZ-13" value="" style="endArrow=classic;html=1;exitX=0.5;exitY=1;exitDx=0;exitDy=0;" parent="1" source="po81cwR4hUowYtx83xnZ-5" target="po81cwR4hUowYtx83xnZ-7" edge="1">
          <mxGeometry width="50" height="50" relative="1" as="geometry">
            <mxPoint x="160" y="320" as="sourcePoint" />
            <mxPoint x="210" y="270" as="targetPoint" />
          </mxGeometry>
        </mxCell>
        <mxCell id="po81cwR4hUowYtx83xnZ-16" style="edgeStyle=orthogonalEdgeStyle;rounded=0;orthogonalLoop=1;jettySize=auto;html=1;exitX=1;exitY=0.5;exitDx=0;exitDy=0;" parent="1" source="po81cwR4hUowYtx83xnZ-14" edge="1">
          <mxGeometry relative="1" as="geometry">
            <mxPoint x="160" y="227" as="targetPoint" />
          </mxGeometry>
        </mxCell>
        <mxCell id="po81cwR4hUowYtx83xnZ-14" value="1" style="ellipse;whiteSpace=wrap;html=1;aspect=fixed;fillColor=#FFFFFF;" parent="1" vertex="1">
          <mxGeometry x="30" y="207" width="40" height="40" as="geometry" />
        </mxCell>
        <mxCell id="po81cwR4hUowYtx83xnZ-19" value="Menu Timesheet" style="rhombus;whiteSpace=wrap;html=1;fillColor=#FFFFFF;" parent="1" vertex="1">
          <mxGeometry x="402" y="146" width="110" height="50" as="geometry" />
        </mxCell>
        <mxCell id="po81cwR4hUowYtx83xnZ-20" value="" style="endArrow=classic;html=1;exitX=1;exitY=0.5;exitDx=0;exitDy=0;" parent="1" source="po81cwR4hUowYtx83xnZ-19" target="po81cwR4hUowYtx83xnZ-23" edge="1">
          <mxGeometry width="50" height="50" relative="1" as="geometry">
            <mxPoint x="412" y="270" as="sourcePoint" />
            <mxPoint x="457" y="250" as="targetPoint" />
          </mxGeometry>
        </mxCell>
        <mxCell id="76g0bi6EwYsv52sHI3iT-1" value="Y" style="edgeLabel;html=1;align=center;verticalAlign=middle;resizable=0;points=[];" vertex="1" connectable="0" parent="po81cwR4hUowYtx83xnZ-20">
          <mxGeometry x="-0.7782" y="-2" relative="1" as="geometry">
            <mxPoint as="offset" />
          </mxGeometry>
        </mxCell>
        <mxCell id="po81cwR4hUowYtx83xnZ-21" value="Halaman Timesheet" style="shape=parallelogram;perimeter=parallelogramPerimeter;whiteSpace=wrap;html=1;fixedSize=1;fillColor=#FFFFFF;" parent="1" vertex="1">
          <mxGeometry x="689.5" y="240" width="135" height="40" as="geometry" />
        </mxCell>
        <mxCell id="po81cwR4hUowYtx83xnZ-22" value="Database System" style="shape=cylinder3;whiteSpace=wrap;html=1;boundedLbl=1;backgroundOutline=1;size=15;fillColor=#FFFFFF;" parent="1" vertex="1">
          <mxGeometry x="926" y="135" width="80" height="70" as="geometry" />
        </mxCell>
        <mxCell id="po81cwR4hUowYtx83xnZ-23" value="Ambil Data Timesheet" style="shape=process;whiteSpace=wrap;html=1;backgroundOutline=1;fillColor=#FFFFFF;" parent="1" vertex="1">
          <mxGeometry x="696.5" y="150" width="120" height="40" as="geometry" />
        </mxCell>
        <mxCell id="po81cwR4hUowYtx83xnZ-24" value="" style="endArrow=classic;html=1;exitX=0.5;exitY=1;exitDx=0;exitDy=0;" parent="1" source="po81cwR4hUowYtx83xnZ-23" target="po81cwR4hUowYtx83xnZ-21" edge="1">
          <mxGeometry width="50" height="50" relative="1" as="geometry">
            <mxPoint x="758" y="200" as="sourcePoint" />
            <mxPoint x="753.98" y="330" as="targetPoint" />
          </mxGeometry>
        </mxCell>
        <mxCell id="po81cwR4hUowYtx83xnZ-25" value="" style="endArrow=classic;startArrow=classic;html=1;exitX=1;exitY=0.5;exitDx=0;exitDy=0;entryX=0;entryY=0.5;entryDx=0;entryDy=0;entryPerimeter=0;" parent="1" source="po81cwR4hUowYtx83xnZ-23" target="po81cwR4hUowYtx83xnZ-22" edge="1">
          <mxGeometry width="50" height="50" relative="1" as="geometry">
            <mxPoint x="822" y="210" as="sourcePoint" />
            <mxPoint x="872" y="160" as="targetPoint" />
          </mxGeometry>
        </mxCell>
        <mxCell id="po81cwR4hUowYtx83xnZ-27" value="" style="endArrow=classic;html=1;exitX=0.5;exitY=1;exitDx=0;exitDy=0;" parent="1" source="po81cwR4hUowYtx83xnZ-21" target="po81cwR4hUowYtx83xnZ-28" edge="1">
          <mxGeometry width="50" height="50" relative="1" as="geometry">
            <mxPoint x="822" y="210" as="sourcePoint" />
            <mxPoint x="757" y="340" as="targetPoint" />
          </mxGeometry>
        </mxCell>
        <mxCell id="po81cwR4hUowYtx83xnZ-28" value="Add Detail" style="rhombus;whiteSpace=wrap;html=1;fillColor=#FFFFFF;" parent="1" vertex="1">
          <mxGeometry x="701.5" y="340" width="110" height="50" as="geometry" />
        </mxCell>
        <mxCell id="po81cwR4hUowYtx83xnZ-29" value="Pop Up Detail Pekerjaan" style="shape=parallelogram;perimeter=parallelogramPerimeter;whiteSpace=wrap;html=1;fixedSize=1;fillColor=#FFFFFF;" parent="1" vertex="1">
          <mxGeometry x="696" y="444" width="120" height="40" as="geometry" />
        </mxCell>
        <mxCell id="po81cwR4hUowYtx83xnZ-30" value="T" style="endArrow=classic;html=1;exitX=0.5;exitY=1;exitDx=0;exitDy=0;" parent="1" source="po81cwR4hUowYtx83xnZ-28" target="po81cwR4hUowYtx83xnZ-29" edge="1">
          <mxGeometry x="-0.6296" width="50" height="50" relative="1" as="geometry">
            <mxPoint x="752" y="450" as="sourcePoint" />
            <mxPoint x="756" y="440" as="targetPoint" />
            <mxPoint as="offset" />
          </mxGeometry>
        </mxCell>
        <mxCell id="po81cwR4hUowYtx83xnZ-32" value="Simpan" style="rhombus;whiteSpace=wrap;html=1;fillColor=#FFFFFF;" parent="1" vertex="1">
          <mxGeometry x="696" y="540" width="120" height="50" as="geometry" />
        </mxCell>
        <mxCell id="po81cwR4hUowYtx83xnZ-33" value="" style="endArrow=classic;html=1;exitX=1;exitY=0.5;exitDx=0;exitDy=0;entryX=0.5;entryY=1;entryDx=0;entryDy=0;" parent="1" source="po81cwR4hUowYtx83xnZ-32" target="po81cwR4hUowYtx83xnZ-36" edge="1">
          <mxGeometry width="50" height="50" relative="1" as="geometry">
            <mxPoint x="822" y="400" as="sourcePoint" />
            <mxPoint x="1002" y="360" as="targetPoint" />
            <Array as="points">
              <mxPoint x="966" y="565" />
            </Array>
          </mxGeometry>
        </mxCell>
        <mxCell id="po81cwR4hUowYtx83xnZ-34" value="T" style="edgeLabel;html=1;align=center;verticalAlign=middle;resizable=0;points=[];" parent="po81cwR4hUowYtx83xnZ-33" vertex="1" connectable="0">
          <mxGeometry x="-0.9127" y="-2" relative="1" as="geometry">
            <mxPoint x="-4.17" y="-2" as="offset" />
          </mxGeometry>
        </mxCell>
        <mxCell id="po81cwR4hUowYtx83xnZ-36" value="Simpan Timesheet" style="rounded=0;whiteSpace=wrap;html=1;fillColor=#FFFFFF;" parent="1" vertex="1">
          <mxGeometry x="906" y="317" width="120" height="43" as="geometry" />
        </mxCell>
        <mxCell id="po81cwR4hUowYtx83xnZ-37" value="" style="endArrow=classic;html=1;entryX=0.5;entryY=1;entryDx=0;entryDy=0;entryPerimeter=0;" parent="1" source="po81cwR4hUowYtx83xnZ-36" target="po81cwR4hUowYtx83xnZ-22" edge="1">
          <mxGeometry width="50" height="50" relative="1" as="geometry">
            <mxPoint x="966" y="317" as="sourcePoint" />
            <mxPoint x="836" y="350" as="targetPoint" />
          </mxGeometry>
        </mxCell>
        <mxCell id="po81cwR4hUowYtx83xnZ-38" value="" style="endArrow=classic;html=1;exitX=0;exitY=0.5;exitDx=0;exitDy=0;entryX=0;entryY=0.75;entryDx=0;entryDy=0;" parent="1" source="po81cwR4hUowYtx83xnZ-32" target="po81cwR4hUowYtx83xnZ-23" edge="1">
          <mxGeometry width="50" height="50" relative="1" as="geometry">
            <mxPoint x="780" y="400" as="sourcePoint" />
            <mxPoint x="830" y="350" as="targetPoint" />
            <Array as="points">
              <mxPoint x="620" y="565" />
              <mxPoint x="620" y="180" />
            </Array>
          </mxGeometry>
        </mxCell>
        <mxCell id="po81cwR4hUowYtx83xnZ-39" value="F" style="edgeLabel;html=1;align=center;verticalAlign=middle;resizable=0;points=[];" parent="po81cwR4hUowYtx83xnZ-38" vertex="1" connectable="0">
          <mxGeometry x="-0.9448" relative="1" as="geometry">
            <mxPoint x="8.5" as="offset" />
          </mxGeometry>
        </mxCell>
        <mxCell id="po81cwR4hUowYtx83xnZ-40" value="" style="endArrow=classic;html=1;exitX=0.5;exitY=1;exitDx=0;exitDy=0;" parent="1" source="po81cwR4hUowYtx83xnZ-29" target="po81cwR4hUowYtx83xnZ-32" edge="1">
          <mxGeometry width="50" height="50" relative="1" as="geometry">
            <mxPoint x="770" y="580" as="sourcePoint" />
            <mxPoint x="820" y="530" as="targetPoint" />
          </mxGeometry>
        </mxCell>
        <mxCell id="po81cwR4hUowYtx83xnZ-41" value="2" style="ellipse;whiteSpace=wrap;html=1;aspect=fixed;fillColor=#FFFFFF;" parent="1" vertex="1">
          <mxGeometry x="300" y="80" width="40" height="40" as="geometry" />
        </mxCell>
        <mxCell id="po81cwR4hUowYtx83xnZ-42" value="" style="endArrow=classic;html=1;" parent="1" source="po81cwR4hUowYtx83xnZ-41" edge="1">
          <mxGeometry width="50" height="50" relative="1" as="geometry">
            <mxPoint x="320" y="120" as="sourcePoint" />
            <mxPoint x="320" y="170" as="targetPoint" />
          </mxGeometry>
        </mxCell>
        <mxCell id="po81cwR4hUowYtx83xnZ-44" value="Cetak" style="rhombus;whiteSpace=wrap;html=1;fillColor=#FFFFFF;" parent="1" vertex="1">
          <mxGeometry x="402" y="360" width="110" height="50" as="geometry" />
        </mxCell>
        <mxCell id="po81cwR4hUowYtx83xnZ-45" value="" style="endArrow=classic;html=1;exitX=0;exitY=0.5;exitDx=0;exitDy=0;entryX=0.5;entryY=0;entryDx=0;entryDy=0;" parent="1" source="po81cwR4hUowYtx83xnZ-21" target="po81cwR4hUowYtx83xnZ-44" edge="1">
          <mxGeometry width="50" height="50" relative="1" as="geometry">
            <mxPoint x="640" y="450" as="sourcePoint" />
            <mxPoint x="690" y="400" as="targetPoint" />
            <Array as="points">
              <mxPoint x="457" y="260" />
            </Array>
          </mxGeometry>
        </mxCell>
        <mxCell id="po81cwR4hUowYtx83xnZ-46" value="" style="endArrow=classic;html=1;entryX=1;entryY=0.5;entryDx=0;entryDy=0;" parent="1" target="po81cwR4hUowYtx83xnZ-47" edge="1">
          <mxGeometry width="50" height="50" relative="1" as="geometry">
            <mxPoint x="757" y="310" as="sourcePoint" />
            <mxPoint x="587" y="310" as="targetPoint" />
          </mxGeometry>
        </mxCell>
        <mxCell id="po81cwR4hUowYtx83xnZ-47" value="3" style="ellipse;whiteSpace=wrap;html=1;aspect=fixed;fillColor=#FFFFFF;" parent="1" vertex="1">
          <mxGeometry x="540" y="290" width="40" height="40" as="geometry" />
        </mxCell>
        <mxCell id="po81cwR4hUowYtx83xnZ-48" value="F" style="endArrow=classic;html=1;exitX=1;exitY=0.5;exitDx=0;exitDy=0;entryX=0;entryY=1;entryDx=0;entryDy=0;" parent="1" source="po81cwR4hUowYtx83xnZ-44" target="po81cwR4hUowYtx83xnZ-21" edge="1">
          <mxGeometry x="-0.9434" width="50" height="50" relative="1" as="geometry">
            <mxPoint x="640" y="450" as="sourcePoint" />
            <mxPoint x="530" y="270" as="targetPoint" />
            <Array as="points">
              <mxPoint x="530" y="385" />
              <mxPoint x="530" y="280" />
            </Array>
            <mxPoint as="offset" />
          </mxGeometry>
        </mxCell>
        <mxCell id="po81cwR4hUowYtx83xnZ-49" value="Ambil Data Timesheet" style="rounded=0;whiteSpace=wrap;html=1;fillColor=#FFFFFF;" parent="1" vertex="1">
          <mxGeometry x="397" y="484" width="120" height="36" as="geometry" />
        </mxCell>
        <mxCell id="po81cwR4hUowYtx83xnZ-50" value="" style="endArrow=classic;html=1;exitX=0.5;exitY=1;exitDx=0;exitDy=0;" parent="1" source="po81cwR4hUowYtx83xnZ-44" target="po81cwR4hUowYtx83xnZ-49" edge="1">
          <mxGeometry width="50" height="50" relative="1" as="geometry">
            <mxPoint x="640" y="450" as="sourcePoint" />
            <mxPoint x="690" y="400" as="targetPoint" />
          </mxGeometry>
        </mxCell>
        <mxCell id="po81cwR4hUowYtx83xnZ-67" value="T" style="edgeLabel;html=1;align=center;verticalAlign=middle;resizable=0;points=[];" parent="po81cwR4hUowYtx83xnZ-50" vertex="1" connectable="0">
          <mxGeometry x="-0.4505" y="2" relative="1" as="geometry">
            <mxPoint x="-2" y="-10" as="offset" />
          </mxGeometry>
        </mxCell>
        <mxCell id="po81cwR4hUowYtx83xnZ-53" value="" style="endArrow=classic;startArrow=classic;html=1;exitX=1;exitY=0.5;exitDx=0;exitDy=0;entryX=1;entryY=0.5;entryDx=0;entryDy=0;entryPerimeter=0;" parent="1" source="po81cwR4hUowYtx83xnZ-49" target="po81cwR4hUowYtx83xnZ-22" edge="1">
          <mxGeometry width="50" height="50" relative="1" as="geometry">
            <mxPoint x="640" y="450" as="sourcePoint" />
            <mxPoint x="1070" y="630" as="targetPoint" />
            <Array as="points">
              <mxPoint x="590" y="502" />
              <mxPoint x="590" y="630" />
              <mxPoint x="1060" y="630" />
              <mxPoint x="1060" y="170" />
            </Array>
          </mxGeometry>
        </mxCell>
        <mxCell id="po81cwR4hUowYtx83xnZ-55" value="" style="endArrow=classic;html=1;exitX=0.5;exitY=1;exitDx=0;exitDy=0;" parent="1" source="po81cwR4hUowYtx83xnZ-49" edge="1">
          <mxGeometry width="50" height="50" relative="1" as="geometry">
            <mxPoint x="457" y="560" as="sourcePoint" />
            <mxPoint x="457" y="670" as="targetPoint" />
          </mxGeometry>
        </mxCell>
        <mxCell id="po81cwR4hUowYtx83xnZ-56" value="Cetak Data" style="rounded=0;whiteSpace=wrap;html=1;fillColor=#FFFFFF;" parent="1" vertex="1">
          <mxGeometry x="397" y="670" width="120" height="40" as="geometry" />
        </mxCell>
        <mxCell id="po81cwR4hUowYtx83xnZ-60" value="Lembur" style="rhombus;whiteSpace=wrap;html=1;fillColor=#FFFFFF;" parent="1" vertex="1">
          <mxGeometry x="570" y="670" width="80" height="40" as="geometry" />
        </mxCell>
        <mxCell id="po81cwR4hUowYtx83xnZ-61" value="" style="endArrow=classic;html=1;exitX=1;exitY=0.5;exitDx=0;exitDy=0;entryX=0;entryY=0.5;entryDx=0;entryDy=0;" parent="1" source="po81cwR4hUowYtx83xnZ-56" target="po81cwR4hUowYtx83xnZ-60" edge="1">
          <mxGeometry width="50" height="50" relative="1" as="geometry">
            <mxPoint x="640" y="570" as="sourcePoint" />
            <mxPoint x="690" y="520" as="targetPoint" />
          </mxGeometry>
        </mxCell>
        <mxCell id="po81cwR4hUowYtx83xnZ-63" value="Form Lembur" style="shape=document;whiteSpace=wrap;html=1;boundedLbl=1;fillColor=#FFFFFF;" parent="1" vertex="1">
          <mxGeometry x="570" y="750" width="80" height="60" as="geometry" />
        </mxCell>
        <mxCell id="po81cwR4hUowYtx83xnZ-64" value="Timesheet" style="shape=document;whiteSpace=wrap;html=1;boundedLbl=1;fillColor=#FFFFFF;" parent="1" vertex="1">
          <mxGeometry x="417" y="750" width="80" height="60" as="geometry" />
        </mxCell>
        <mxCell id="po81cwR4hUowYtx83xnZ-65" value="T" style="endArrow=classic;html=1;exitX=1;exitY=0.5;exitDx=0;exitDy=0;entryX=1;entryY=0.5;entryDx=0;entryDy=0;" parent="1" source="po81cwR4hUowYtx83xnZ-60" target="po81cwR4hUowYtx83xnZ-63" edge="1">
          <mxGeometry x="-0.8667" width="50" height="50" relative="1" as="geometry">
            <mxPoint x="640" y="570" as="sourcePoint" />
            <mxPoint x="720" y="690" as="targetPoint" />
            <Array as="points">
              <mxPoint x="680" y="690" />
              <mxPoint x="680" y="780" />
            </Array>
            <mxPoint as="offset" />
          </mxGeometry>
        </mxCell>
        <mxCell id="po81cwR4hUowYtx83xnZ-66" value="" style="endArrow=classic;html=1;exitX=0.5;exitY=1;exitDx=0;exitDy=0;" parent="1" source="po81cwR4hUowYtx83xnZ-56" target="po81cwR4hUowYtx83xnZ-64" edge="1">
          <mxGeometry width="50" height="50" relative="1" as="geometry">
            <mxPoint x="640" y="570" as="sourcePoint" />
            <mxPoint x="690" y="520" as="targetPoint" />
          </mxGeometry>
        </mxCell>
        <mxCell id="76g0bi6EwYsv52sHI3iT-2" value="" style="endArrow=classic;html=1;exitX=0.5;exitY=0;exitDx=0;exitDy=0;" edge="1" parent="1" source="po81cwR4hUowYtx83xnZ-19">
          <mxGeometry width="50" height="50" relative="1" as="geometry">
            <mxPoint x="540" y="280" as="sourcePoint" />
            <mxPoint x="200" y="160" as="targetPoint" />
            <Array as="points">
              <mxPoint x="457" y="130" />
              <mxPoint x="200" y="130" />
            </Array>
          </mxGeometry>
        </mxCell>
        <mxCell id="76g0bi6EwYsv52sHI3iT-3" value="T" style="edgeLabel;html=1;align=center;verticalAlign=middle;resizable=0;points=[];" vertex="1" connectable="0" parent="76g0bi6EwYsv52sHI3iT-2">
          <mxGeometry x="-0.7325" y="2" relative="1" as="geometry">
            <mxPoint x="-1" as="offset" />
          </mxGeometry>
        </mxCell>
      </root>
    </mxGraphModel>
  </diagram>
</mxfile>
